<svg xmlns="http://www.w3.org/2000/svg" viewBox="0 0 600 340" width="100%" height="100%">
  <defs>
    <linearGradient id="delBg" x1="0%" y1="0%" x2="100%" y2="100%">
      <stop offset="0%" stop-color="#042f2e"/>
      <stop offset="100%" stop-color="#0f172a"/>
    </linearGradient>
  </defs>
  <rect width="600" height="340" fill="url(#delBg)"/>
  
  <rect x="70" y="40" width="460" height="260" rx="12" fill="#021a1a" stroke="rgba(20,184,166,0.35)" stroke-width="1.5"/>
  <rect x="70" y="40" width="460" height="36" rx="12" fill="#0f766e"/>
  <circle cx="95" cy="58" r="5" fill="#f43f5e"/>
  <circle cx="112" cy="58" r="5" fill="#fbbf24"/>
  <circle cx="129" cy="58" r="5" fill="#10b981"/>
  <text x="155" y="62" font-family="monospace" font-size="11" fill="#ccfbf1">Delivery Management System - C Data Structures</text>

  <text x="95" y="105" font-family="monospace" font-size="11" fill="#2dd4bf">[Order Stack &amp; Dynamic Linked List]</text>

  <rect x="95" y="125" width="85" height="42" rx="6" fill="#115e59" stroke="#5eead4" stroke-width="1.2"/>
  <text x="105" y="145" font-family="monospace" font-size="9" fill="#fff">Order #101</text>
  <text x="105" y="158" font-family="monospace" font-size="8" fill="#a7f3d0">Next: 0x4F</text>
  
  <line x1="180" y1="146" x2="210" y2="146" stroke="#5eead4" stroke-width="2"/>
  <polyline points="205,141 212,146 205,151" fill="none" stroke="#5eead4" stroke-width="2"/>

  <rect x="212" y="125" width="85" height="42" rx="6" fill="#115e59" stroke="#5eead4" stroke-width="1.2"/>
  <text x="222" y="145" font-family="monospace" font-size="9" fill="#fff">Order #102</text>
  <text x="222" y="158" font-family="monospace" font-size="8" fill="#a7f3d0">Next: 0x8A</text>

  <line x1="297" y1="146" x2="307" y2="146" stroke="#5eead4" stroke-width="2"/>
  <polyline points="302,141 309,146 302,151" fill="none" stroke="#5eead4" stroke-width="2"/>

  <rect x="309" y="125" width="85" height="42" rx="6" fill="#115e59" stroke="#5eead4" stroke-width="1.2"/>
  <text x="319" y="145" font-family="monospace" font-size="9" fill="#fff">Order #103</text>
  <text x="319" y="158" font-family="monospace" font-size="8" fill="#a7f3d0">Next: NULL</text>

  <rect x="95" y="195" width="410" height="55" rx="8" fill="rgba(20,184,166,0.1)" stroke="rgba(20,184,166,0.25)" stroke-width="1"/>
  <text x="110" y="218" font-family="monospace" font-size="10" fill="#5eead4">&gt; Algorithm: QuickSort &amp; Binary Search on Routes</text>
  <text x="110" y="238" font-family="monospace" font-size="10" fill="#99f6e4">&gt; Status: 100% Memory Managed (0 Leaks Verified)</text>
</svg>
