<svg xmlns="http://www.w3.org/2000/svg" viewBox="0 0 600 340" width="100%" height="100%">
  <defs>
    <linearGradient id="nbBg" x1="0%" y1="0%" x2="100%" y2="100%">
      <stop offset="0%" stop-color="#1e1b2e"/>
      <stop offset="100%" stop-color="#0f172a"/>
    </linearGradient>
    <linearGradient id="dropGrad" x1="0%" y1="0%" x2="100%" y2="100%">
      <stop offset="0%" stop-color="#f43f5e"/>
      <stop offset="100%" stop-color="#be123c"/>
    </linearGradient>
  </defs>
  <rect width="600" height="340" fill="url(#nbBg)"/>
  
  <rect x="70" y="40" width="460" height="260" rx="12" fill="#181926" stroke="rgba(244,63,94,0.3)" stroke-width="1.5"/>
  <rect x="70" y="40" width="460" height="36" rx="12" fill="#212234"/>
  <circle cx="95" cy="58" r="5" fill="#f43f5e"/>
  <circle cx="112" cy="58" r="5" fill="#fbbf24"/>
  <circle cx="129" cy="58" r="5" fill="#10b981"/>
  <text x="155" y="62" font-family="monospace" font-size="11" fill="#94a3b8">NEED Blood - Donor Management Console</text>
  
  <rect x="95" y="95" width="100" height="55" rx="8" fill="rgba(244,63,94,0.12)" stroke="rgba(244,63,94,0.3)" stroke-width="1"/>
  <text x="105" y="115" font-family="sans-serif" font-size="10" fill="#fda4af">Registered Donors</text>
  <text x="105" y="138" font-family="monospace" font-weight="bold" font-size="16" fill="#fff">1,240+</text>

  <rect x="207" y="95" width="100" height="55" rx="8" fill="rgba(56,189,248,0.1)" stroke="rgba(56,189,248,0.25)" stroke-width="1"/>
  <text x="217" y="115" font-family="sans-serif" font-size="10" fill="#7dd3fc">Blood Banks</text>
  <text x="217" y="138" font-family="monospace" font-weight="bold" font-size="16" fill="#fff">18 Hubs</text>

  <rect x="319" y="95" width="100" height="55" rx="8" fill="rgba(16,185,129,0.1)" stroke="rgba(16,185,129,0.25)" stroke-width="1"/>
  <text x="329" y="115" font-family="sans-serif" font-size="10" fill="#6ee7b7">Matched Donors</text>
  <text x="329" y="138" font-family="monospace" font-weight="bold" font-size="16" fill="#fff">98.4%</text>

  <g transform="translate(440, 105)">
    <path d="M24,2 C24,2 4,32 4,46 C4,57 13,66 24,66 C35,66 44,57 44,46 C44,32 24,2 24,2 Z" fill="url(#dropGrad)"/>
    <path d="M22,12 C22,12 12,30 12,40 C12,47 16,52 22,54 C18,52 16,46 16,40 C16,30 22,12 22,12 Z" fill="#ffffff" opacity="0.35"/>
  </g>

  <path d="M95,200 L150,200 L165,175 L180,225 L195,185 L210,200 L300,200 L315,170 L330,230 L345,180 L360,200 L505,200" fill="none" stroke="#f43f5e" stroke-width="2.5" stroke-linecap="round" stroke-linejoin="round"/>
  <text x="95" y="250" font-family="monospace" font-size="11" fill="#94a3b8">Node.js Express &#183; MongoDB Atlas &#183; Render Cloud</text>
</svg>
