<svg xmlns="http://www.w3.org/2000/svg" viewBox="0 0 600 340" width="100%" height="100%">
  <defs>
    <linearGradient id="transBg" x1="0%" y1="0%" x2="100%" y2="100%">
      <stop offset="0%" stop-color="#0c4a6e"/>
      <stop offset="100%" stop-color="#0f172a"/>
    </linearGradient>
  </defs>
  <rect width="600" height="340" fill="url(#transBg)"/>
  
  <rect x="70" y="40" width="460" height="260" rx="12" fill="#082f49" stroke="rgba(56,189,248,0.35)" stroke-width="1.5"/>
  <rect x="70" y="40" width="460" height="36" rx="12" fill="#0369a1"/>
  <circle cx="95" cy="58" r="5" fill="#f43f5e"/>
  <circle cx="112" cy="58" r="5" fill="#fbbf24"/>
  <circle cx="129" cy="58" r="5" fill="#10b981"/>
  <text x="155" y="62" font-family="monospace" font-size="11" fill="#e0f2fe">University Transport Portal - Bus Schedules &amp; Seats</text>

  <rect x="95" y="95" width="190" height="70" rx="8" fill="rgba(56,189,248,0.12)" stroke="rgba(56,189,248,0.3)" stroke-width="1"/>
  <text x="110" y="118" font-family="sans-serif" font-weight="bold" font-size="12" fill="#fff">Route 4: DSC &#8596; Dhanmondi</text>
  <text x="110" y="138" font-family="monospace" font-size="10" fill="#7dd3fc">Departure: 07:30 AM &#183; Bus #12</text>
  <text x="110" y="154" font-family="monospace" font-size="10" fill="#38bdf8">Available Seats: 14 / 48</text>

  <rect x="300" y="95" width="205" height="70" rx="8" fill="rgba(56,189,248,0.12)" stroke="rgba(56,189,248,0.3)" stroke-width="1"/>
  <text x="315" y="118" font-family="sans-serif" font-weight="bold" font-size="12" fill="#fff">Route 8: DSC &#8596; Mirpur-10</text>
  <text x="315" y="138" font-family="monospace" font-size="10" fill="#7dd3fc">Departure: 08:00 AM &#183; Bus #05</text>
  <text x="315" y="154" font-family="monospace" font-size="10" fill="#38bdf8">Available Seats: 08 / 48</text>

  <rect x="95" y="180" width="410" height="65" rx="8" fill="rgba(2,132,199,0.15)" stroke="rgba(56,189,248,0.2)" stroke-width="1"/>
  <text x="110" y="204" font-family="sans-serif" font-weight="bold" font-size="11" fill="#e0f2fe">Verified Driver &amp; Fleet Management</text>
  <text x="110" y="224" font-family="monospace" font-size="10" fill="#94a3b8">Driver: Md. Rafiqul &#183; Active GPS Route &#183; Instant Student Booking</text>
</svg>
